<svg xmlns="http://www.w3.org/2000/svg" viewBox="0 0 671.8558 739.53278">
  <defs>
    <style>
      .cls-1 {
        fill: #f7f9fd;
      }
    </style>
  </defs>
  <g id="Layer_2" data-name="Layer 2">
    <g id="Layer_1-2" data-name="Layer 1">
      <path class="cls-1" d="M148.46768,207.86678c-.00753.01868-.01573.03648-.02305.05533-7.74432,19.50869-19.21534,35.3555-30.055,47.2641A182.60887,182.60887,0,0,1,91.1222,279.36858q-1.28771.94371-2.56529,1.90739l-.06128.0391-.00117.00752a223.95765,223.95765,0,0,0-41.70961,41.12929c-69.4,89.01817-60.3905,212.7099,19.05476,280.10457,3.124,2.65016,6.22787,5.33128,9.106,8.254,26.47893,26.88914,76.64224,39.66679,98.03086,44.07908q16.62891,3.43041,32.75764,8.41171A826.50362,826.50362,0,0,1,308.03658,702.994l31.55865,15.62323c82.725,43.4052,180.95468,5.789,180.95468,5.789h0a225.9865,225.9865,0,0,0,103.096-74.6982c67.84758-87.02684,62.96624-206.20189-7.60694-277.50909l.00282-.01393c-26.00876-38.96054-20.63732-73.5485-20.63732-73.5485l-.014-.00356c31.03071-92.08095,6.15664-194.2001-70.02787-253.5948C427.11661-31.55608,280.77-8.09074,198.48875,97.45A255.30477,255.30477,0,0,0,148.46768,207.86678Z"/>
    </g>
  </g>
</svg>
