<svg xmlns="http://www.w3.org/2000/svg" viewBox="0 0 413.79 258.74"><defs><style>.cls-1{fill:#fff;}.cls-2{fill:#ea4335;}</style></defs><title>Asset 4</title><g id="Layer_2" data-name="Layer 2"><g id="Layer_1-2" data-name="Layer 1"><circle class="cls-1" cx="183.44" cy="74.95" r="14.47"/><circle class="cls-1" cx="212.83" cy="45.34" r="10.93"/><path class="cls-1" d="M170.19,14.5a18.93,18.93,0,0,0-18.91,18.33c0,.2,0,.39,0,.59a18.77,18.77,0,0,0,3.54,11l0,0h0A16.08,16.08,0,0,1,150,67.08,8.77,8.77,0,0,0,148,68.19a8.34,8.34,0,0,0-3.32,5.62,10.24,10.24,0,0,0-.11,1.1,8.37,8.37,0,0,0,16.73,0,8.1,8.1,0,0,0-.14-1.4,8.93,8.93,0,0,0-.56-1.93,16,16,0,0,1-.41-3.55A16.22,16.22,0,0,1,173,52.16a.16.16,0,0,1,.09,0,2.15,2.15,0,0,0,.44-.09,18.92,18.92,0,0,0-3.32-37.55Z"/><circle class="cls-1" cx="129.12" cy="52.65" r="14.47"/><circle class="cls-2" cx="128.97" cy="10.93" r="10.93"/><path class="cls-1" d="M77,19.28a18.93,18.93,0,0,0-.41,26.33c.14.15.26.3.4.44a18.78,18.78,0,0,0,10.29,5.29h0a16.08,16.08,0,0,1,12.6,19.36A8,8,0,0,0,99.26,73a8.25,8.25,0,0,0,1.63,6.32,8,8,0,0,0,.7.86,8.36,8.36,0,1,0,10.73-12.72,8,8,0,0,0-1.76-1,16.75,16.75,0,0,1-2.8-2.22,16.23,16.23,0,0,1-2.14-20.3.12.12,0,0,1,0-.07,2.26,2.26,0,0,0,.25-.38,18.93,18.93,0,0,0-2.14-24.2A18.94,18.94,0,0,0,77,19.28Z"/><circle class="cls-1" cx="74.95" cy="75.29" r="14.47"/><circle class="cls-1" cx="45.34" cy="45.9" r="10.93"/><path class="cls-1" d="M14.5,88.54a18.92,18.92,0,0,0,18.33,18.91c.2,0,.39,0,.59,0a18.77,18.77,0,0,0,11-3.54l0,0h0a16.09,16.09,0,0,1,22.6,4.78,8.58,8.58,0,0,0,1.11,2.07,8.31,8.31,0,0,0,5.62,3.32,8.2,8.2,0,0,0,1.1.11,8.34,8.34,0,0,0,4.15-15.58,8.25,8.25,0,0,0-4.15-1.14,8.1,8.1,0,0,0-1.4.14,7.93,7.93,0,0,0-1.93.56,16.57,16.57,0,0,1-3.55.4A16.22,16.22,0,0,1,52.16,85.75a.13.13,0,0,1,0-.09,2.46,2.46,0,0,0-.09-.44A18.92,18.92,0,0,0,14.5,88.54Z"/><circle class="cls-1" cx="52.65" cy="129.61" r="14.47"/><circle class="cls-2" cx="10.93" cy="129.77" r="10.93"/><path class="cls-1" d="M19.28,181.72a18.91,18.91,0,0,0,26.33.41c.15-.13.3-.25.44-.39a18.81,18.81,0,0,0,5.29-10.3,0,0,0,0,1,0,0h0a16.08,16.08,0,0,1,19.36-12.6,8.7,8.7,0,0,0,2.25.68,8.33,8.33,0,0,0,6.32-1.63,8,8,0,0,0,.86-.7,8.34,8.34,0,0,0-8.09-14,8.42,8.42,0,0,0-5.6,5,16.15,16.15,0,0,1-22.52,5,.09.09,0,0,1-.07-.05c-.13-.09-.24-.17-.38-.25a18.92,18.92,0,0,0-24.2,28.9Z"/><circle class="cls-1" cx="75.29" cy="183.79" r="14.47"/><circle class="cls-1" cx="45.9" cy="213.4" r="10.93"/><path class="cls-1" d="M88.54,244.23a18.92,18.92,0,0,0,18.91-18.33c0-.19,0-.39,0-.59a18.81,18.81,0,0,0-3.54-11l0,0h0a16.09,16.09,0,0,1,4.78-22.6,7.94,7.94,0,0,0,2.07-1.11,8.26,8.26,0,0,0,3.32-5.62,7.88,7.88,0,0,0,.11-1.1,8.33,8.33,0,0,0-15.58-4.14,8.21,8.21,0,0,0-1.14,4.14,8,8,0,0,0,.14,1.4,7.88,7.88,0,0,0,.56,1.94,16.5,16.5,0,0,1,.4,3.55,16.21,16.21,0,0,1-12.83,15.86.13.13,0,0,1-.09,0l-.44.09a18.92,18.92,0,0,0,3.32,37.55Z"/><circle class="cls-1" cx="129.61" cy="206.09" r="14.47"/><circle class="cls-2" cx="129.77" cy="247.81" r="10.93"/><path class="cls-1" d="M181.72,239.46a18.92,18.92,0,0,0,.41-26.34c-.13-.14-.25-.29-.39-.43a18.81,18.81,0,0,0-10.3-5.29h0A16.08,16.08,0,0,1,158.8,188a8.47,8.47,0,0,0,.68-2.25,8.35,8.35,0,0,0-1.63-6.32,7,7,0,0,0-.7-.85,8.36,8.36,0,0,0-11.83,11.82,7.58,7.58,0,0,0,1.09.89,8.73,8.73,0,0,0,1.76,1,15.43,15.43,0,0,1,2.8,2.22,16.22,16.22,0,0,1,2.15,20.29s0,.06-.05.08a3.41,3.41,0,0,0-.25.37,18.92,18.92,0,0,0,28.9,24.21Z"/><circle class="cls-1" cx="183.79" cy="183.44" r="14.47"/><circle class="cls-1" cx="213.4" cy="212.83" r="10.93"/><path class="cls-2" d="M148,110.17V146.6h-5.27V122.9l-7.17,7.17-1.73,1.72-2,2-11.15-11.16h0l-5.27-5.27v-7.46l16.42,16.42ZM115.39,121.1l5.27,5.27V146.6h-5.27Z"/><path class="cls-2" d="M175.24,146.6V110h5.27V146.6Zm0-36.61V146.6h5.27V110Zm5.09.17h-4.92v36.27h4.92Z"/><path class="cls-2" d="M207.75,115.34v-5.27h32.59v5.27Zm13.38,31.26V118h5.27V146.6Z"/><path class="cls-2" d="M301,146.6h-6.17l-10.53-17.26-.29-.48-.06,0-.29.08-.09,0-.41.1-.94.19-.28,0-.14,0-.35,0-.16,0-.37,0-.46,0h0l-.43,0h-7.75V146.6H267V110H297.3c0,.43,0,.86,0,1.29a18,18,0,0,1-.43,4,18.25,18.25,0,0,1-5,9l-.7.66-.24.21,0,0-.32.27-.23.19-.17.12c-.2.16-.41.31-.62.46l-.29.2,0,0-.28.18-.05,0-.1.06.64,1ZM288.2,120.52a12.89,12.89,0,0,0,3.25-5.29H272.26v9h6.79a12.89,12.89,0,0,0,9.15-3.75Z"/><path class="cls-2" d="M339.91,110a18.29,18.29,0,1,1-18.29,18.29A18.28,18.28,0,0,1,339.91,110Zm-13,18.29a13,13,0,1,0,13-13A13,13,0,0,0,326.89,128.32Z"/><path class="cls-2" d="M403.42,115.34H381.19v-5.27h32.6L410,115.34,392.9,138.7h-6.52Zm-19,26h29.34v5.27h-32.6v-.8Z"/><path class="cls-1" d="M236.89,166.69V165h10.53v1.71Zm4.32,10.1v-9.25h1.7v9.25Z"/><path class="cls-1" d="M263.31,165v1.7H252.87V165Zm-8.74,10.11h8.74v1.7H252.87v-9.25h1.7v2.07h7.6v1.7h-7.6Z"/><path class="cls-1" d="M277.91,172.7h1.84a5.93,5.93,0,0,1-11.5-1,6.13,6.13,0,0,1-.07-.87,5.69,5.69,0,0,1,.06-.83,5.93,5.93,0,0,1,11.56-.81H278a4.22,4.22,0,0,0-8,.81,4.58,4.58,0,0,0-.08.83,4.14,4.14,0,0,0,.09.87,4.22,4.22,0,0,0,7.93,1Z"/><path class="cls-1" d="M295.38,165v11.79h-1.7v-5.46h-6.93v5.46h-1.7V165h1.7v4.63h6.93V165Z"/><path class="cls-1" d="M310,165v11.76l-1.7-1.71-6-6h0l-1.7-1.7V165l7.67,7.67V165Zm-9.37,3.59,1.7,1.7v6.52h-1.7Z"/><path class="cls-1" d="M321,165a5.91,5.91,0,1,1-5.91,5.91A5.92,5.92,0,0,1,321,165Zm-4.21,5.91a4.21,4.21,0,1,0,4.21-4.21A4.22,4.22,0,0,0,316.77,170.88Z"/><path class="cls-1" d="M341.32,175.09v1.7h-9.19v-11.9h1.7v10.2Z"/><path class="cls-1" d="M350.91,165a5.91,5.91,0,1,1-5.91,5.91A5.92,5.92,0,0,1,350.91,165Zm-4.21,5.91a4.21,4.21,0,1,0,4.21-4.21A4.22,4.22,0,0,0,346.7,170.88Z"/><path class="cls-1" d="M372.81,176.79h-5.1a6.11,6.11,0,0,1-4.25-1.7,5.8,5.8,0,0,1,0-8.38,6.11,6.11,0,0,1,4.25-1.7h5.07v1.7h-5.67a4.21,4.21,0,0,0,0,8.38h4v-3.76h-3.36l-.79-1.7h5.86Z"/><path class="cls-1" d="M378.44,176.79V165h1.71v11.83Zm0-11.83v11.83h1.71V165Zm1.65,0H378.5v11.72h1.59Z"/><path class="cls-1" d="M396,165v1.7H385.59V165Zm-8.74,10.11H396v1.7H385.59v-9.25h1.7v2.07h7.6v1.7h-7.6Z"/><path class="cls-1" d="M410.71,171.73a3.36,3.36,0,0,1,0,3.36,3.39,3.39,0,0,1-2.93,1.7H404.1a3.39,3.39,0,0,1-3.39-3.29h1.71a1.69,1.69,0,0,0,1.68,1.59h3.68a1.68,1.68,0,0,0,0-3.36h-3.69a3.36,3.36,0,0,1-2.42-1,3.1,3.1,0,0,1-.51-.68,3.34,3.34,0,0,1,0-3.35,3.37,3.37,0,0,1,2.93-1.7h3.77a3.37,3.37,0,0,1,2.85,1.7h0a3.41,3.41,0,0,1,.45,1.59h-1.71a1.68,1.68,0,0,0-1.62-1.59h-3.74a1.67,1.67,0,0,0-.16,3.34h3.85A3.39,3.39,0,0,1,410.71,171.73Z"/></g></g></svg>