<?xml version="1.0" encoding="utf-8"?>
<!-- Generator: Adobe Illustrator 21.0.0, SVG Export Plug-In . SVG Version: 6.00 Build 0)  -->
<svg version="1.1" id="Layer_1" xmlns="http://www.w3.org/2000/svg" xmlns:xlink="http://www.w3.org/1999/xlink" x="0px" y="0px"
	 viewBox="0 0 598 270.6" style="enable-background:new 0 0 598 270.6;" xml:space="preserve">
<style type="text/css">
	.st0{fill:#01203F;}
	.st1{fill:#EA4335;}
</style>
<title>Asset 3</title>
<g id="Layer_2">
	<g id="Layer_1-2">
		<circle class="st0" cx="191.8" cy="78.4" r="15.1"/>
		<circle class="st0" cx="222.6" cy="47.4" r="11.4"/>
		<path class="st0" d="M178,15.2c-10.7,0-19.5,8.5-19.8,19.2c0,0.2,0,0.4,0,0.6c0,4.1,1.3,8.2,3.7,11.5l0,0l0,0
			c5.2,7.7,3.2,18.2-4.6,23.3c-0.1,0.1-0.3,0.2-0.4,0.3c-3,1.1-5.2,3.8-5.6,7c-0.1,0.4-0.1,0.8-0.1,1.2c-0.1,4.8,3.7,8.8,8.6,8.9
			s8.8-3.7,8.9-8.6c0-0.6,0-1.2-0.2-1.8c-0.1-0.7-0.3-1.4-0.6-2c-2.1-9.1,3.6-18.1,12.7-20.2c0.1,0,0.2-0.1,0.3-0.1c0,0,0.1,0,0.1,0
			c0.2,0,0.3-0.1,0.5-0.1c10.7-2,17.8-12.4,15.7-23.1C195.5,22,187.4,15.3,178,15.2z"/>
		<circle class="st0" cx="135" cy="55.1" r="15.1"/>
		<circle class="st1" cx="134.9" cy="11.4" r="11.4"/>
		<path class="st0" d="M80.5,20.2c-7.6,7.6-7.7,19.7-0.4,27.5c0.1,0.2,0.3,0.3,0.4,0.5c2.9,2.9,6.7,4.9,10.8,5.5l0,0
			c9.1,1.8,15.1,10.6,13.3,19.8c0,0.2-0.1,0.3-0.1,0.5c-0.3,0.8-0.6,1.5-0.7,2.4c-0.4,2.3,0.3,4.7,1.7,6.6c0.2,0.3,0.5,0.6,0.7,0.9
			c3.4,3.4,9,3.4,12.4,0s3.4-9,0-12.4c-0.4-0.3-0.7-0.6-1.1-0.9c-0.6-0.4-1.2-0.7-1.8-1c-7.9-5-10.3-15.5-5.3-23.4
			c0-0.1,0.1-0.1,0.1-0.2c0,0,0-0.1,0-0.1c0.1-0.1,0.2-0.3,0.3-0.4c6.2-9,3.8-21.3-5.2-27.5C97.7,12.7,87.3,13.6,80.5,20.2z"/>
		<circle class="st0" cx="78.4" cy="78.7" r="15.1"/>
		<circle class="st0" cx="47.4" cy="48" r="11.4"/>
		<path class="st0" d="M15.2,92.6c0,10.7,8.5,19.4,19.2,19.8c0.2,0,0.4,0,0.6,0c4.1,0,8.2-1.3,11.5-3.7l0,0l0,0
			c7.7-5.2,18.2-3.2,23.3,4.6c0.1,0.1,0.2,0.3,0.3,0.4c1.1,3,3.8,5.2,7,5.6c0.4,0.1,0.8,0.1,1.2,0.1c4.8,0,8.7-4,8.7-8.8
			s-4-8.7-8.8-8.7c-1.2,0-2.3,0.2-3.4,0.7c-9.1,2.1-18.1-3.6-20.2-12.7c0-0.1-0.1-0.2-0.1-0.3c0,0,0-0.1,0-0.1
			c0-0.2-0.1-0.3-0.1-0.5c-1.9-10.8-12.2-17.9-23-16C22,74.8,15.1,83,15.2,92.6L15.2,92.6z"/>
		<circle class="st0" cx="55.1" cy="135.5" r="15.1"/>
		<circle class="st1" cx="11.4" cy="135.7" r="11.4"/>
		<path class="st0" d="M20.2,190c7.6,7.6,19.7,7.7,27.5,0.4c0.2-0.1,0.3-0.3,0.5-0.4c2.9-2.9,4.9-6.7,5.5-10.8l0,0l0,0
			c1.8-9.1,10.6-15.1,19.8-13.3c0.2,0,0.3,0.1,0.5,0.1c0.8,0.3,1.5,0.6,2.4,0.7c2.3,0.4,4.7-0.3,6.6-1.7c0.3-0.2,0.6-0.5,0.9-0.7
			c3.2-3.6,2.9-9.1-0.7-12.4c-3.3-3-8.3-3-11.7,0c-0.3,0.4-0.6,0.7-0.9,1.1c-0.4,0.6-0.7,1.2-1,1.9c-5,7.9-15.4,10.3-23.4,5.3
			c-0.1,0-0.1-0.1-0.2-0.1c0,0-0.1,0-0.1,0c-0.1-0.1-0.3-0.2-0.4-0.3c-9.1-6.1-21.4-3.6-27.5,5.5C12.9,173,13.8,183.3,20.2,190z"/>
		<circle class="st0" cx="78.7" cy="192.2" r="15.1"/>
		<circle class="st0" cx="48" cy="223.1" r="11.4"/>
		<path class="st0" d="M92.6,255.4c10.7,0,19.4-8.5,19.8-19.2c0-0.2,0-0.4,0-0.6c0-4.1-1.3-8.2-3.7-11.5l0,0l0,0
			c-5.2-7.7-3.2-18.2,4.6-23.3c0.1-0.1,0.3-0.2,0.4-0.3c3-1.1,5.2-3.8,5.6-7c0.1-0.4,0.1-0.8,0.1-1.1c0-4.8-4-8.7-8.8-8.7
			s-8.7,4-8.7,8.8c0,1.2,0.2,2.3,0.7,3.4c2.1,9.1-3.6,18.1-12.7,20.2c-0.1,0-0.2,0.1-0.3,0.1c0,0-0.1,0-0.1,0
			c-0.2,0-0.3,0.1-0.5,0.1c-10.8,1.9-17.9,12.2-16,23C74.8,248.6,83,255.5,92.6,255.4L92.6,255.4z"/>
		<circle class="st0" cx="135.5" cy="215.5" r="15.1"/>
		<circle class="st1" cx="135.7" cy="259.1" r="11.4"/>
		<path class="st0" d="M190,250.4c7.6-7.6,7.7-19.7,0.4-27.5c-0.1-0.1-0.3-0.3-0.4-0.4c-2.9-2.9-6.7-4.9-10.8-5.5h-0.1
			c-9.1-1.8-15.1-10.6-13.3-19.8c0-0.2,0.1-0.3,0.1-0.5c0.3-0.8,0.6-1.5,0.7-2.4c0.4-2.3-0.3-4.7-1.7-6.6c-0.2-0.3-0.5-0.6-0.7-0.9
			c-3.7-3.1-9.2-2.6-12.3,1.1c-2.7,3.3-2.7,8,0,11.3c0.4,0.3,0.7,0.6,1.1,0.9c0.6,0.4,1.2,0.7,1.9,1c7.9,5,10.3,15.4,5.3,23.4
			c0,0.1-0.1,0.1-0.1,0.2c0,0,0,0.1,0,0.1c-0.1,0.1-0.2,0.3-0.3,0.4c-6.1,9.1-3.6,21.4,5.5,27.5C173,257.7,183.3,256.8,190,250.4z"
			/>
		<circle class="st0" cx="192.2" cy="191.8" r="15.1"/>
		<circle class="st0" cx="223.1" cy="222.6" r="11.4"/>
		<path class="st1" d="M158.4,106v59h-8.5v-38.4l-11.6,11.6l-2.8,2.8l-3.3,3.3l-18.1-18.1l0,0l-8.5-8.5v-12.1l26.6,26.6L158.4,106z
			 M105.6,123.7l8.5,8.5V165h-8.5V123.7z"/>
		<path class="st1" d="M202.6,165v-59.3h8.5V165H202.6z M202.6,105.7V165h8.5v-59.3L202.6,105.7z M210.8,106h-8v58.7h8V106z"/>
		<path class="st1" d="M255.2,114.3v-8.5H308v8.5H255.2z M276.9,165v-46.4h8.5V165H276.9z"/>
		<path class="st1" d="M406.3,165h-10l-17-28l-0.5-0.8h-0.1l-0.4,0.1h-0.2l-0.7,0.2c-0.5,0.1-1,0.2-1.5,0.3l-0.4,0.1h-0.2h-0.6h-0.2
			h-0.6H373l0,0h-0.7h-0.1h-0.5h-11.9V165h-8.6v-59.3h49.1c0,0.7,0.1,1.4,0.1,2.1c0,7.9-3.2,15.5-8.8,21.1c-0.4,0.4-0.7,0.7-1.1,1.1
			l-0.4,0.3l0,0l-0.5,0.4l-0.4,0.3l-0.3,0.2l-1,0.7l-0.5,0.3l0,0c-0.1,0.1-0.3,0.2-0.4,0.3l0,0l-0.2,0.1l1,1.7L406.3,165z
			 M385.5,122.7c2.4-2.4,4.2-5.3,5.3-8.6h-31.1v14.8h11c2.9,0,5.7-0.6,8.4-1.7C381.5,126.1,383.7,124.6,385.5,122.7z"/>
		<path class="st1" d="M469.3,105.7c16.4,0,29.6,13.3,29.6,29.6c0,16.4-13.3,29.6-29.6,29.6c-16.4,0-29.6-13.3-29.6-29.6
			c0,0,0,0,0,0C439.7,119,452.9,105.7,469.3,105.7z M448.2,135.4c0,11.7,9.4,21.1,21.1,21.1c11.7,0,21.1-9.4,21.1-21.1
			s-9.4-21.1-21.1-21.1c0,0,0,0,0,0C457.7,114.3,448.2,123.7,448.2,135.4L448.2,135.4z"/>
		<path class="st1" d="M572.2,114.3h-36v-8.5H589l-6.2,8.5l-27.7,37.8h-10.6L572.2,114.3z M541.4,156.4h47.5v8.5h-52.8v-1.3
			L541.4,156.4z"/>
		<path class="st0" d="M247.7,177.5v-3.3h20.6v3.3H247.7z M256.2,197.3v-18.1h3.3v18.1H256.2z"/>
		<path class="st0" d="M299.4,174.2v3.3H279v-3.3H299.4z M282.3,193.9h17.1v3.3H279v-18.1h3.3v4h14.9v3.3h-14.9L282.3,193.9z"/>
		<path class="st0" d="M328,189.3h3.6c-2,6.1-8.5,9.4-14.6,7.4c-4.2-1.4-7.2-4.9-7.8-9.3c-0.1-0.6-0.1-1.1-0.1-1.7
			c0-0.5,0-1.1,0.1-1.6c0.9-6.3,6.8-10.8,13.1-9.8c4.5,0.6,8.2,3.9,9.5,8.2h-3.6c-1.8-4.2-6.6-6.2-10.8-4.4c-2.5,1.1-4.4,3.3-4.9,6
			c-0.1,0.5-0.2,1.1-0.2,1.6c0,4.6,3.7,8.3,8.2,8.3c0,0,0.1,0,0.1,0C323.8,194,326.7,192.1,328,189.3z"/>
		<path class="st0" d="M362.3,174.2v23.1h-3.3v-10.7h-13.6v10.7H342v-23.1h3.3v9h13.6v-9H362.3z"/>
		<path class="st0" d="M390.9,174.2v23l-3.3-3.4l-11.7-11.7l0,0l-3.3-3.3v-4.7l15,15v-15L390.9,174.2z M372.6,181.2l3.3,3.3v12.8
			h-3.3V181.2z"/>
		<path class="st0" d="M412.4,174.1c6.4,0,11.6,5.2,11.6,11.6c0,6.4-5.2,11.6-11.6,11.6c-6.4,0-11.6-5.2-11.6-11.6v0
			C400.8,179.3,406,174.1,412.4,174.1C412.4,174.1,412.4,174.1,412.4,174.1z M404.1,185.7c0,4.6,3.7,8.2,8.2,8.2
			c4.6,0,8.2-3.7,8.2-8.2c0-4.6-3.7-8.2-8.2-8.2l0,0C407.8,177.5,404.1,181.2,404.1,185.7L404.1,185.7L404.1,185.7z"/>
		<path class="st0" d="M452.2,193.9v3.3h-18V174h3.3v20H452.2z"/>
		<path class="st0" d="M471,174.1c6.4,0,11.6,5.2,11.6,11.6c0,6.4-5.2,11.6-11.6,11.6c-6.4,0-11.6-5.2-11.6-11.6v0
			C459.4,179.3,464.6,174.1,471,174.1z M462.7,185.7c0,4.6,3.7,8.2,8.2,8.2s8.2-3.7,8.2-8.2c0-4.6-3.7-8.2-8.2-8.2l0,0
			C466.4,177.5,462.7,181.2,462.7,185.7L462.7,185.7z"/>
		<path class="st0" d="M513.9,197.3h-10c-3.1,0-6.1-1.2-8.3-3.3c-4.5-4.2-4.8-11.4-0.5-15.9c0.2-0.2,0.3-0.4,0.5-0.5
			c2.2-2.1,5.2-3.3,8.3-3.3h9.9v3.3h-11.1c-4.5,0.4-7.9,4.5-7.4,9c0.4,3.9,3.5,7,7.4,7.4h7.8v-7.3h-6.6l-1.5-3.4h11.5V197.3z"/>
		<path class="st0" d="M524.9,197.3v-23.2h3.3v23.2H524.9z M524.9,174.1v23.2h3.3v-23.2H524.9z M528.1,174.2H525v22.9h3.1V174.2z"/>
		<path class="st0" d="M559.3,174.2v3.3h-20.4v-3.3H559.3z M542.2,193.9h17.1v3.3h-20.5v-18.1h3.4v4h14.9v3.3h-14.9V193.9z"/>
		<path class="st0" d="M588.1,187.4c1.1,2,1.1,4.5,0,6.6c-1.2,2.1-3.4,3.3-5.7,3.3h-7.2c-2.4,0-4.6-1.3-5.7-3.3
			c-0.5-0.9-0.8-2-0.9-3.1h3.3c0.1,1.7,1.5,3.1,3.3,3.1h7.2c1.8-0.1,3.2-1.7,3-3.5c-0.1-1.6-1.4-2.9-3-3h-7.2c-1.8,0-3.5-0.7-4.8-2
			c-0.4-0.4-0.7-0.8-1-1.3c-1.1-2-1.1-4.5,0-6.6c1.2-2.1,3.4-3.3,5.7-3.3h7.4c2.3,0,4.5,1.3,5.6,3.3l0,0c0.5,0.9,0.8,2,0.9,3.1h-3.3
			c-0.1-1.7-1.5-3-3.2-3.1h-7.3c-1.8-0.1-3.3,1.3-3.4,3.1c-0.1,1.8,1.3,3.3,3.1,3.4h7.5C584.7,184,586.9,185.3,588.1,187.4z"/>
	</g>
</g>
</svg>
