<svg xmlns="http://www.w3.org/2000/svg" viewBox="0 0 970.43373 1025.16041">
  <defs>
    <style>
      .cls-1 {
        fill: #f7f9fd;
      }
    </style>
  </defs>
  <g id="Layer_2" data-name="Layer 2">
    <g id="Layer_1-2" data-name="Layer 1">
      <path class="cls-1" d="M80.92532,438.32354c.00055.029-.00025.05718.00067.08627.74489,30.19731-5.50925,57.64713-13.14779,79.52649A262.7965,262.7965,0,0,1,45.308,565.32905q-1.173,1.97556-2.32127,3.97187l-.05909.08631.00268.01062a322.30129,322.30129,0,0,0-32.03822,77.97436c-41.70287,156.995,39.96384,315.69323,183.15287,360.138,5.63061,1.7477,11.252,3.54778,16.71064,5.795,50.22032,20.67459,123.84464,9.31118,154.65254,3.09452,15.96805-3.22216,32.00816-5.697,48.11627-7.331a1189.43383,1189.43383,0,0,1,157.83553-5.12167l50.59457,2.89366c134.00646,10.83167,242.86247-94.357,242.86247-94.357h0c43.86873-40.10533,77.6145-93.86864,94.39268-157.03193,40.77-153.483-32.88413-308.5283-166.5317-363.15568l-.00411-.02c-56.40363-36.92317-68.79209-85.74885-68.79209-85.74885l-.02049.00316C713.03321,167.11272,622.5232,45.9227,488.16205,10.2321,314.89253-35.7938,134.3476,77.78633,84.90431,263.9209A367.4137,367.4137,0,0,0,80.92532,438.32354Z"/>
    </g>
  </g>
</svg>
