<svg xmlns="http://www.w3.org/2000/svg" viewBox="0 0 1112.68829 972.35064">
  <defs>
    <style>
      .cls-1 {
        fill: #f7f9fd;
      }
    </style>
  </defs>
  <g id="Layer_2" data-name="Layer 2">
    <g id="Layer_1-2" data-name="Layer 1">
      <path class="cls-1" d="M106.81712,198.96s430.468-470.29787,919.14893,35.234c0,0,160.85107,168.51063,44.42554,369.19148,0,0-53.35658,89.34128-65.14471,161.93108a266.92958,266.92958,0,0,1-27.95243,83.73585c-46.96609,87.38819-163.48827,218.10654-391.17308,17.69621a263.34355,263.34355,0,0,0-39.43708-28.80246c-64.47593-38.308-243.04455-132.1161-361.73948-75.2415C58.89019,823.10591,28.502,694.42506,22.39221,656.42642c-1.25516-7.80626-2.89319-15.53628-4.84244-23.19877C1.368,569.61734-21.63332,434.23013,43.31737,297.07068A447.18712,447.18712,0,0,1,106.81712,198.96Z"/>
    </g>
  </g>
</svg>
